<svg width="64" height="50" viewBox="0 0 64 50" fill="none" xmlns="http://www.w3.org/2000/svg">
<path id="diligence"  d="M3.19833 49.5819H54.3715C56.1378 49.5819 57.5699 48.1499 57.5699 46.3836V42.1192C57.5699 40.3529 56.1378 38.9209 54.3715 38.9209H53.3054V12.3343L59.3611 6.59768C60.7666 7.29055 62.4678 6.86993 63.3876 5.60029C64.308 4.33116 64.1789 2.58364 63.0826 1.46339C61.9863 0.343142 60.2424 0.176042 58.953 1.06776C57.6641 1.96 57.206 3.65131 57.8681 5.07192L53.3054 9.39726V6.93761C53.3054 5.17134 51.8734 3.73928 50.1071 3.73928H7.46276C5.6965 3.73928 4.26443 5.17134 4.26443 6.93761V38.9209H3.19833C1.43206 38.9209 0 40.3529 0 42.1192V46.3836C0 48.1499 1.43206 49.5819 3.19833 49.5819ZM60.7682 2.67317C61.3569 2.67317 61.8343 3.15053 61.8343 3.73928C61.8343 4.32803 61.3569 4.80539 60.7682 4.80539C60.1794 4.80539 59.7021 4.32803 59.7021 3.73928C59.7021 3.15053 60.1794 2.67317 60.7682 2.67317ZM6.39665 6.93761C6.39665 6.34885 6.874 5.8715 7.46276 5.8715H50.1071C50.6958 5.8715 51.1732 6.34885 51.1732 6.93761V11.4149L49.041 13.441V9.06982C49.041 8.48107 48.5636 8.00371 47.9749 8.00371H9.59498C9.00622 8.00371 8.52887 8.48107 8.52887 9.06982V35.7225C8.52887 36.3113 9.00622 36.7886 9.59498 36.7886H47.9749C48.5636 36.7886 49.041 36.3113 49.041 35.7225V16.3738L51.1732 14.3535V38.9209H6.39665V6.93761ZM15.9916 20.797C14.5492 20.7929 13.2826 21.7538 12.899 23.1442C12.5153 24.5346 13.1093 26.0094 14.3498 26.7455C15.5898 27.4815 17.1697 27.2967 18.2061 26.2936L21.912 28.1531C22.3425 28.3686 22.8646 28.2676 23.1847 27.9079L31.0624 19.0453L38.8062 24.848C39.2216 25.1593 39.8016 25.126 40.1784 24.7694L46.9088 18.3941V34.6564H10.6611V10.1359H46.9088V15.4566L39.3658 22.5997L31.5569 16.7455C31.1134 16.4134 30.4892 16.4758 30.1207 16.8897L22.1348 25.8751L19.1493 24.3821C19.1712 24.2541 19.1847 24.125 19.19 23.9953C19.19 22.2291 17.7579 20.797 15.9916 20.797ZM17.0577 23.9953C17.0577 24.5841 16.5804 25.0615 15.9916 25.0615C15.4029 25.0615 14.9255 24.5841 14.9255 23.9953C14.9255 23.4066 15.4029 22.9292 15.9916 22.9292C16.5804 22.9292 17.0577 23.4066 17.0577 23.9953ZM23.4544 41.0531H34.1155V42.1192C34.1155 42.7079 33.6381 43.1853 33.0494 43.1853H24.5205C23.9317 43.1853 23.4544 42.7079 23.4544 42.1192V41.0531ZM2.13222 42.1192C2.13222 41.5304 2.60957 41.0531 3.19833 41.0531H21.3222V42.1192C21.3222 43.8855 22.7542 45.3175 24.5205 45.3175H33.0494C34.8156 45.3175 36.2477 43.8855 36.2477 42.1192V41.0531H54.3715C54.9603 41.0531 55.4376 41.5304 55.4376 42.1192V46.3836C55.4376 46.9724 54.9603 47.4497 54.3715 47.4497H3.19833C2.60957 47.4497 2.13222 46.9724 2.13222 46.3836V42.1192Z" fill="#2E2F42"/>
<path id="antenna-circle" d="M3.75108 0.533298H3.74149C1.97415 0.530632 0.539353 1.96117 0.536686 3.7285C0.534019 5.49584 1.96455 6.93064 3.73188 6.9333H3.74149C5.50882 6.93597 6.94362 5.50544 6.94628 3.7381C6.94895 1.97077 5.51842 0.535965 3.75108 0.533298ZM4.49775 4.48957C4.29695 4.6893 4.02482 4.80104 3.74149 4.79997C3.15242 4.7969 2.67735 4.3169 2.68042 3.72784C2.68189 3.44584 2.79495 3.17597 2.99482 2.97703C3.19335 2.77957 3.46149 2.6681 3.74149 2.66663C4.33055 2.6697 4.80562 3.1497 4.80255 3.73877C4.80108 4.02077 4.68802 4.29064 4.48815 4.48957H4.49775Z" fill="#4D5AE5"/>
<path id="antenna" d="M59.5463 44.1952L42.6599 27.1851L44.534 17.9541C45.0176 18.1429 45.5318 18.2416 46.0508 18.2453H46.0636C48.4482 18.2735 50.404 16.3633 50.4323 13.9788C50.4606 11.5943 48.5503 9.6384 46.1658 9.61013C43.7812 9.582 41.8254 11.4921 41.7971 13.8767C41.7911 14.3869 41.8755 14.8941 42.0466 15.3749L32.1266 16.5856L15.9452 0.32C15.7467 0.117467 15.4757 0.00226667 15.1921 0C14.9121 0.00146667 14.644 0.112933 14.4455 0.3104L11.4204 3.3184C11.004 3.73493 11.004 4.41013 11.4204 4.82667L13.0481 6.47787C6.74201 18.0737 8.79028 32.4335 18.0871 41.8037C18.1724 41.8853 18.2713 41.9513 18.3793 41.9989C18.3121 42.3599 18.2771 42.7261 18.2748 43.0933V55.4667H5.47481C2.53081 55.4701 0.144946 57.856 0.141479 60.8V62.9333C0.141479 63.5224 0.61908 64 1.20815 64H50.2748C50.8639 64 51.3415 63.5224 51.3415 62.9333V60.8C51.338 57.856 48.9522 55.4701 46.0082 55.4667H33.2082V49.9829C35.2134 50.4035 37.2564 50.6179 39.3052 50.6229C44.2215 50.6176 49.0595 49.392 53.3852 47.056L55.0215 48.7019C55.22 48.9044 55.491 49.0196 55.7746 49.0219C56.0546 49.0204 56.3227 48.9089 56.5212 48.7115L59.5463 45.7035C59.9627 45.2869 59.9627 44.6117 59.5463 44.1952ZM44.5596 12.4661C45.395 11.6352 46.7458 11.6389 47.5766 12.4743C48.4075 13.3096 48.4038 14.6604 47.5684 15.4912C47.1686 15.8889 46.6275 16.1121 46.0635 16.112H46.0571C44.879 16.1059 43.9287 15.1459 43.9348 13.9676C43.9378 13.4036 44.1639 12.8639 44.5638 12.4661H44.5596ZM42.0487 19.4752L40.8519 25.3664L38.5009 23.0016L42.0487 19.4752ZM40.837 17.6715L36.997 21.4891L34.0263 18.5024L40.837 17.6715ZM46.0082 57.6C47.7755 57.6 49.2082 59.0327 49.2082 60.8V61.8667H2.27481V60.8C2.27481 59.0327 3.70748 57.6 5.47481 57.6H46.0082ZM31.0748 53.3333V55.4667H20.4081V53.3333H31.0748ZM20.4081 51.2V43.0933C20.4081 40.5056 22.8007 38.4 25.7415 38.4C28.6823 38.4 31.0748 40.5056 31.0748 43.0933V51.2H20.4081ZM33.2082 47.808V43.0933C33.2082 39.3291 29.8588 36.2667 25.7415 36.2667C23.0793 36.2259 20.59 37.5809 19.1793 39.8389C11.0639 31.2913 9.23641 18.5485 14.6221 8.06467L51.8258 45.4816C46.081 48.404 39.4955 49.2268 33.2082 47.808ZM55.7863 46.4405L54.2834 44.9291L15.1815 5.59147L13.6721 4.07893L15.1815 2.57493L31.0513 18.5344C31.0588 18.5344 31.0631 18.5483 31.0706 18.5536L57.2999 44.9365L55.7863 46.4405Z" fill="#2E2F42"/>
</svg>
